<svg xmlns="http://www.w3.org/2000/svg" width="200" height="100" viewBox="0 0 200 100" fill="none"><rect x="1" y="1" width="198" height="98" rx="7" stroke="#3D4044" stroke-width="2"></rect><circle cx="145" cy="51" r="20" fill="#626568"></circle><path d="M37.98 58.572C37.932 57.42 37.896 56.1 37.872 54.612C37.872 53.1 37.872 51.576 37.872 50.04C37.896 48.504 37.932 47.112 37.98 45.864C38.052 44.184 38.496 42.984 39.312 42.264C40.152 41.52 41.496 41.148 43.344 41.148C45.192 41.148 46.524 41.508 47.34 42.228C48.18 42.948 48.612 44.136 48.636 45.792C48.636 46.272 48.636 46.8 48.636 47.376C48.636 47.928 48.624 48.432 48.6 48.888H45.756C45.804 48.336 45.816 47.76 45.792 47.16C45.792 46.536 45.792 45.984 45.792 45.504C45.768 44.712 45.564 44.16 45.18 43.848C44.82 43.512 44.208 43.344 43.344 43.344C42.456 43.344 41.82 43.512 41.436 43.848C41.076 44.16 40.884 44.712 40.86 45.504C40.74 49.872 40.74 54.324 40.86 58.86C40.884 59.676 41.088 60.252 41.472 60.588C41.88 60.9 42.504 61.056 43.344 61.056C44.232 61.056 44.856 60.9 45.216 60.588C45.576 60.252 45.768 59.676 45.792 58.86C45.792 58.356 45.792 57.84 45.792 57.312C45.816 56.784 45.804 56.16 45.756 55.44H48.6C48.624 55.872 48.636 56.4 48.636 57.024C48.66 57.648 48.66 58.164 48.636 58.572C48.564 60.252 48.12 61.452 47.304 62.172C46.512 62.892 45.192 63.252 43.344 63.252C41.472 63.252 40.128 62.892 39.312 62.172C38.496 61.428 38.052 60.228 37.98 58.572ZM52.1111 63V34.2H55.0271V43.38H55.6031C56.0111 42.636 56.4791 42.084 57.0071 41.724C57.5351 41.34 58.2791 41.148 59.2391 41.148C60.5831 41.148 61.5671 41.508 62.1911 42.228C62.8151 42.948 63.1391 44.1 63.1631 45.684L63.1991 63H60.2831V45.468C60.2591 44.7 60.0911 44.148 59.7791 43.812C59.4671 43.476 58.9391 43.308 58.1951 43.308C56.5871 43.308 55.5311 44.016 55.0271 45.432V63H52.1111ZM69.9477 63.216C67.3317 63.216 65.9277 61.812 65.7357 59.004C65.7117 58.692 65.6877 58.392 65.6637 58.104C65.6637 57.792 65.6757 57.48 65.6997 57.168C65.7717 55.896 66.1077 54.816 66.7077 53.928C67.3077 53.016 68.3877 52.176 69.9477 51.408C70.5237 51.144 71.1357 50.88 71.7837 50.616C72.4317 50.328 73.0797 50.076 73.7277 49.86V45.576C73.7277 44.808 73.5357 44.256 73.1517 43.92C72.7917 43.56 72.1917 43.38 71.3517 43.38C70.6317 43.38 70.0557 43.524 69.6237 43.812C69.1917 44.1 68.9637 44.628 68.9397 45.396C68.9157 45.924 68.9037 46.56 68.9037 47.304C68.9037 48.024 68.9157 48.564 68.9397 48.924H66.2037C66.1557 48.42 66.1317 47.892 66.1317 47.34C66.1317 46.788 66.1437 46.272 66.1677 45.792C66.2157 44.184 66.6237 43.008 67.3917 42.264C68.1837 41.496 69.5397 41.112 71.4597 41.112C73.4037 41.112 74.7357 41.508 75.4557 42.3C76.1757 43.092 76.5357 44.376 76.5357 46.152L76.4997 63H73.6557V61.02H73.2597C72.9477 61.716 72.5517 62.256 72.0717 62.64C71.5917 63.024 70.8837 63.216 69.9477 63.216ZM70.8117 61.092C72.1797 61.092 73.1397 60.42 73.6917 59.076V52.164C73.1877 52.332 72.6837 52.524 72.1797 52.74C71.6997 52.956 71.1477 53.256 70.5237 53.64C69.7317 54.096 69.2037 54.624 68.9397 55.224C68.6997 55.8 68.5797 56.46 68.5797 57.204C68.5797 57.54 68.5797 57.828 68.5797 58.068C68.5797 58.308 68.5917 58.548 68.6157 58.788C68.6637 59.508 68.8797 60.072 69.2637 60.48C69.6477 60.888 70.1637 61.092 70.8117 61.092ZM80.3768 63V41.4H83.2207V43.38H83.7968C84.1808 42.66 84.6128 42.108 85.0928 41.724C85.5968 41.34 86.3288 41.148 87.2888 41.148C89.1848 41.148 90.3728 41.952 90.8528 43.56H91.3568C91.7408 42.816 92.2208 42.228 92.7968 41.796C93.3728 41.364 94.1408 41.148 95.1008 41.148C96.3488 41.148 97.2848 41.508 97.9088 42.228C98.5328 42.924 98.8568 44.076 98.8808 45.684V63H96.0008V45.468C96.0008 44.7 95.8328 44.148 95.4968 43.812C95.1608 43.476 94.6688 43.308 94.0208 43.308C92.6528 43.308 91.6808 43.992 91.1048 45.36V63H88.2248V45.468C88.2248 44.7 88.0568 44.148 87.7207 43.812C87.4088 43.476 86.9168 43.308 86.2448 43.308C84.7568 43.308 83.7488 44.016 83.2207 45.432V63H80.3768ZM102.701 70.2V41.4H105.617V43.38H106.121C106.529 42.636 106.985 42.084 107.489 41.724C108.017 41.34 108.773 41.148 109.757 41.148C111.053 41.148 112.025 41.508 112.673 42.228C113.321 42.924 113.681 44.076 113.753 45.684C113.777 46.428 113.789 47.376 113.789 48.528C113.813 49.68 113.825 50.904 113.825 52.2C113.825 53.472 113.813 54.696 113.789 55.872C113.789 57.024 113.777 57.972 113.753 58.716C113.681 60.324 113.297 61.488 112.601 62.208C111.905 62.904 110.909 63.252 109.613 63.252C108.797 63.252 108.113 63.084 107.561 62.748C107.033 62.388 106.553 61.812 106.121 61.02H105.617V70.2H102.701ZM108.641 61.092C109.361 61.092 109.901 60.924 110.261 60.588C110.621 60.252 110.813 59.7 110.837 58.932C110.909 56.94 110.945 55.224 110.945 53.784C110.969 52.32 110.969 50.94 110.945 49.644C110.921 48.348 110.885 46.944 110.837 45.432C110.813 44.688 110.645 44.148 110.333 43.812C110.021 43.476 109.505 43.308 108.785 43.308C107.177 43.308 106.121 44.016 105.617 45.432V58.968C105.905 59.76 106.289 60.312 106.769 60.624C107.249 60.936 107.873 61.092 108.641 61.092ZM117.139 37.08V34.2H120.919V37.08H117.139ZM117.607 63V41.4H120.451V63H117.607Z" fill="#626568"></path><path d="M136.085 63.27C133.945 63.27 132.395 62.84 131.435 61.98C130.495 61.12 130.005 59.69 129.965 57.69C129.925 56.05 129.895 54.52 129.875 53.1C129.875 51.68 129.875 50.26 129.875 48.84C129.895 47.42 129.925 45.9 129.965 44.28C130.005 42.3 130.495 40.88 131.435 40.02C132.395 39.16 133.945 38.73 136.085 38.73C138.205 38.73 139.735 39.16 140.675 40.02C141.635 40.88 142.145 42.3 142.205 44.28C142.265 45.92 142.305 47.45 142.325 48.87C142.345 50.29 142.345 51.71 142.325 53.13C142.305 54.55 142.265 56.07 142.205 57.69C142.145 59.69 141.635 61.12 140.675 61.98C139.735 62.84 138.205 63.27 136.085 63.27ZM136.085 60.03C136.845 60.03 137.385 59.87 137.705 59.55C138.045 59.23 138.225 58.68 138.245 57.9C138.345 55.48 138.395 53.18 138.395 51C138.395 48.82 138.345 46.52 138.245 44.1C138.225 43.32 138.045 42.77 137.705 42.45C137.385 42.13 136.845 41.97 136.085 41.97C135.325 41.97 134.775 42.13 134.435 42.45C134.115 42.77 133.945 43.32 133.925 44.1C133.825 46.5 133.775 48.79 133.775 50.97C133.775 53.15 133.825 55.46 133.925 57.9C133.945 58.68 134.115 59.23 134.435 59.55C134.775 59.87 135.325 60.03 136.085 60.03ZM144.495 63V39H151.305L152.985 46.65L154.755 59.49H156.105L155.415 48.84L155.115 39H159.105V63H151.995L150.255 54.96L148.875 42.48H147.465L148.125 53.82L148.455 63H144.495Z" fill="#1F2428"></path></svg>