<svg xmlns="http://www.w3.org/2000/svg" width="200" height="100" viewBox="0 0 200 100" fill="none"><rect x="1" y="1" width="198" height="98" rx="7" stroke="#3D4044" stroke-width="2"></rect><path fill-rule="evenodd" clip-rule="evenodd" d="M69.2425 41.813C68.009 40.197 66.3846 38.9274 64.3691 38.0042C62.0289 36.8942 59.3205 36.3393 56.244 36.3393H42.6364V63.4419H56.244C59.3205 63.4419 62.0289 62.8998 64.3691 61.8157C66.3841 60.8707 68.0084 59.5888 69.2418 57.9701C66.0269 66.061 58.1267 71.7811 48.8905 71.7811C36.8007 71.7811 27 61.9804 27 49.8905C27 37.8007 36.8007 28 48.8905 28C58.1275 28 66.0282 33.721 69.2425 41.813ZM60.6221 54.6529C59.4388 55.7628 57.848 56.3178 55.8496 56.3178H51.9448V43.4634H55.8496C57.848 43.4634 59.4388 44.0313 60.6221 45.167C61.8317 46.2769 62.4364 47.8514 62.4364 49.8906C62.4364 51.9297 61.8317 53.5172 60.6221 54.6529Z" fill="#626568"></path><path d="M92.6311 54.8732C92.6311 54.9774 92.5998 55.5299 92.5373 56.5306H80.6539C80.904 57.1769 81.321 57.6773 81.9048 58.0317C82.4885 58.3652 83.2182 58.532 84.0938 58.532C84.8443 58.532 85.4698 58.4382 85.9701 58.2506C86.4913 58.063 87.0542 57.7398 87.6588 57.2811L91.349 61.0025C89.6811 62.8372 87.1898 63.7545 83.8749 63.7545C81.8109 63.7545 79.9972 63.3792 78.4335 62.6287C76.8699 61.8573 75.6607 60.7941 74.806 59.4389C73.9512 58.0838 73.5238 56.5619 73.5238 54.8732C73.5238 53.1636 73.9408 51.6417 74.7747 50.3074C75.6295 48.9523 76.7865 47.8995 78.2459 47.1489C79.7261 46.3984 81.3836 46.0232 83.2182 46.0232C84.9486 46.0232 86.5226 46.3671 87.9403 47.0551C89.3788 47.7431 90.515 48.7543 91.349 50.0885C92.2037 51.4228 92.6311 53.0177 92.6311 54.8732ZM83.2807 50.8391C82.551 50.8391 81.9465 51.0371 81.4669 51.4332C80.9874 51.8294 80.6747 52.3923 80.5288 53.1219H86.0327C85.8867 52.4131 85.574 51.8606 85.0945 51.4645C84.615 51.0476 84.0104 50.8391 83.2807 50.8391Z" fill="#626568"></path><path d="M101.44 46.0232C104.442 46.0232 106.735 46.7007 108.32 48.0558C109.904 49.3901 110.696 51.4541 110.696 54.2477V63.4418H104.129V61.1902C103.316 62.8997 101.7 63.7545 99.2818 63.7545C97.9267 63.7545 96.7696 63.5252 95.8106 63.0665C94.8725 62.587 94.1532 61.9511 93.6528 61.1589C93.1733 60.3458 92.9336 59.4389 92.9336 58.4382C92.9336 56.7495 93.5799 55.4674 94.8725 54.5917C96.165 53.7161 98.1248 53.2783 100.752 53.2783H103.597C103.368 51.944 102.294 51.2769 100.376 51.2769C99.605 51.2769 98.8232 51.402 98.031 51.6521C97.2387 51.8815 96.5612 52.2046 95.9983 52.6216L93.7467 47.962C94.7265 47.3574 95.9044 46.8883 97.2804 46.5548C98.6772 46.2004 100.064 46.0232 101.44 46.0232ZM101.408 59.5015C101.909 59.5015 102.357 59.366 102.753 59.0949C103.149 58.8239 103.441 58.4174 103.629 57.8753V56.687H101.877C100.439 56.687 99.7197 57.1665 99.7197 58.1255C99.7197 58.5216 99.8656 58.8552 100.157 59.1262C100.47 59.3764 100.887 59.5015 101.408 59.5015Z" fill="#626568"></path><path d="M113.125 40.2378H120.193V63.4418H113.125V40.2378Z" fill="#626568"></path><path d="M131.738 63.7545C129.84 63.7545 128.131 63.3792 126.609 62.6287C125.108 61.8573 123.93 60.8045 123.075 59.4702C122.22 58.1151 121.793 56.5827 121.793 54.8732C121.793 53.1636 122.22 51.6417 123.075 50.3074C123.93 48.9523 125.108 47.8995 126.609 47.1489C128.131 46.3984 129.84 46.0232 131.738 46.0232C133.656 46.0232 135.365 46.3984 136.866 47.1489C138.388 47.8995 139.566 48.9523 140.4 50.3074C141.255 51.6417 141.682 53.1636 141.682 54.8732C141.682 56.5827 141.255 58.1151 140.4 59.4702C139.566 60.8045 138.388 61.8573 136.866 62.6287C135.365 63.3792 133.656 63.7545 131.738 63.7545ZM131.738 58.2506C132.551 58.2506 133.218 57.9587 133.739 57.375C134.26 56.7704 134.521 55.9364 134.521 54.8732C134.521 53.8099 134.26 52.9864 133.739 52.4027C133.218 51.8189 132.551 51.5271 131.738 51.5271C130.924 51.5271 130.257 51.8189 129.736 52.4027C129.215 52.9864 128.954 53.8099 128.954 54.8732C128.954 55.9364 129.215 56.7704 129.736 57.375C130.257 57.9587 130.924 58.2506 131.738 58.2506Z" fill="#626568"></path><path d="M165.91 46.0232C167.974 46.0232 169.621 46.659 170.851 47.9308C172.102 49.2025 172.727 51.1205 172.727 53.6848V63.4418H165.66V54.9045C165.66 52.9447 165.024 51.9649 163.752 51.9649C163.085 51.9649 162.543 52.215 162.126 52.7154C161.73 53.2158 161.532 54.008 161.532 55.0921V63.4418H154.464V54.9045C154.464 52.9447 153.828 51.9649 152.556 51.9649C151.889 51.9649 151.347 52.215 150.93 52.7154C150.534 53.2158 150.336 54.008 150.336 55.0921V63.4418H143.269V46.3359H149.992V47.9308C151.264 46.659 152.88 46.0232 154.839 46.0232C155.986 46.0232 157.018 46.2421 157.935 46.6799C158.853 47.0968 159.603 47.7431 160.187 48.6187C160.875 47.7848 161.709 47.149 162.689 46.7111C163.669 46.2525 164.742 46.0232 165.91 46.0232Z" fill="#626568"></path></svg>