<svg xmlns="http://www.w3.org/2000/svg" width="200" height="100" viewBox="0 0 200 100" fill="none"><rect x="1" y="1" width="198" height="98" rx="7" stroke="#3D4044" stroke-width="2"></rect><path d="M87.3029 60.9118V40.3232L84.7873 39.8403V37.409H90.038C90.7471 37.409 91.7433 37.3745 93.0264 37.3056C94.152 37.2251 95.165 37.1849 96.0655 37.1849C100.309 37.1849 103.489 38.2597 105.605 40.4094C107.732 42.5591 108.796 45.6341 108.796 49.6346C108.796 52.3935 108.272 54.8536 107.225 57.0148C106.19 59.1759 104.704 60.8715 102.768 62.1016C100.843 63.3201 98.5924 63.9294 96.0148 63.9294C95.4745 63.9294 94.3827 63.8776 92.7394 63.7742C92.4693 63.7627 92.0528 63.7397 91.49 63.7052C90.9385 63.6707 90.4995 63.6535 90.1731 63.6535H84.6691V61.3429L87.3029 60.9118ZM92.9589 61.0497C93.3303 61.1877 93.7524 61.2796 94.2251 61.3256C94.6979 61.3716 95.2438 61.3889 95.8628 61.3774C97.9677 61.3544 99.611 60.452 100.793 58.6701C101.975 56.8768 102.566 54.1581 102.566 50.514C102.566 47.0538 101.975 44.3754 100.793 42.4786C99.611 40.5703 97.7707 39.6162 95.2719 39.6162C94.5741 39.6162 94.0282 39.6622 93.6342 39.7541C93.2403 39.8346 93.0152 39.8806 92.9589 39.8921V61.0497Z" fill="#626568"></path><path d="M110.974 53.8592C110.974 51.7325 111.362 49.8933 112.139 48.3413C112.926 46.7894 114.03 45.5996 115.448 44.772C116.866 43.9443 118.509 43.5304 120.378 43.5304C122.753 43.5304 124.57 44.1454 125.831 45.3755C127.103 46.6055 127.767 48.3701 127.823 50.6692C127.823 52.2671 127.739 53.4799 127.57 54.3076H116.663C116.798 56.4228 117.305 57.9919 118.183 59.015C119.072 60.0381 120.248 60.5497 121.712 60.5497C122.556 60.5497 123.434 60.4002 124.345 60.1013C125.268 59.8025 126.017 59.4633 126.591 59.084L127.57 61.2222C127.176 61.6475 126.591 62.0786 125.814 62.5154C125.049 62.9523 124.165 63.3201 123.164 63.619C122.173 63.9064 121.177 64.0501 120.175 64.0501C118.082 64.0501 116.348 63.6247 114.975 62.7741C113.602 61.9234 112.589 60.7393 111.936 59.2219C111.294 57.693 110.974 55.9054 110.974 53.8592ZM122.438 51.9452L122.454 50.4968C122.454 49.0598 122.252 47.9447 121.847 47.1515C121.441 46.3584 120.755 45.9618 119.787 45.9618C119.145 45.9618 118.599 46.1284 118.149 46.4618C117.699 46.7952 117.339 47.4045 117.069 48.2896C116.798 49.1633 116.646 50.3818 116.613 51.9452H122.438Z" fill="#626568"></path><path d="M132.23 60.998V38.0988L129.748 37.6504V35.5295L136.569 34.6846H136.653L137.666 35.4433V60.998L139.946 61.3429V63.6535H129.968V61.3429L132.23 60.998Z" fill="#626568"></path><path d="M141.651 46.9446V44.9272C141.921 44.8237 142.304 44.6628 142.799 44.4443C143.294 44.2259 143.57 44.0937 143.626 44.0477C144.054 43.6224 144.414 43.0649 144.707 42.3751C144.91 41.9268 145.129 41.3635 145.365 40.6853C145.602 40.007 145.799 39.392 145.956 38.8402H149.08L149.232 44.0305H154.297V46.9446H149.265V56.2906C149.265 57.647 149.294 58.5839 149.35 59.1012C149.417 59.6185 149.558 59.9576 149.772 60.1186C149.986 60.268 150.363 60.3428 150.903 60.3428H150.92C151.877 60.3428 152.929 60.1703 154.077 59.8254H154.094L154.82 61.9636C154.415 62.3085 153.858 62.6361 153.149 62.9465C152.451 63.2454 151.669 63.4925 150.802 63.688C149.946 63.8834 149.114 63.9811 148.303 63.9811H148.269C146.739 63.9811 145.596 63.6305 144.842 62.9293C144.099 62.2165 143.728 61.1187 143.728 59.6358V46.9446H141.651Z" fill="#626568"></path><path d="M167.094 50.8416C167.094 49.9795 166.999 49.2955 166.807 48.7897C166.627 48.2839 166.29 47.9045 165.794 47.6516C165.299 47.3987 164.59 47.2723 163.667 47.2723C162.519 47.2723 161.478 47.4045 160.544 47.6689C159.621 47.9218 158.692 48.2551 157.758 48.669H157.741L156.644 46.3411C157.015 46.0192 157.628 45.6456 158.484 45.2203C159.351 44.7835 160.358 44.4041 161.506 44.0822C162.665 43.7489 163.847 43.5822 165.052 43.5822C166.852 43.5822 168.265 43.8236 169.289 44.3064C170.325 44.7777 171.062 45.5307 171.501 46.5653C171.94 47.5999 172.16 48.9966 172.16 50.7554V61.3256H174V63.5155C173.426 63.642 172.705 63.7684 171.839 63.8949C170.972 64.0213 170.212 64.0846 169.559 64.0846C168.963 64.0846 168.501 64.0271 168.175 63.9121C167.86 63.8087 167.635 63.619 167.5 63.3431C167.365 63.0557 167.297 62.6419 167.297 62.1016V61.567C166.746 62.2223 165.997 62.8028 165.052 63.3086C164.106 63.8029 163.02 64.0501 161.793 64.0501C160.712 64.0501 159.722 63.8259 158.822 63.3776C157.932 62.9178 157.223 62.2453 156.694 61.3601C156.165 60.475 155.901 59.4059 155.901 58.1528C155.901 55.9917 156.891 54.365 158.872 53.273C160.853 52.1694 163.594 51.6003 167.094 51.5659V50.8416ZM167.094 53.8937C165.215 53.9052 163.853 54.2501 163.009 54.9283C162.176 55.6066 161.759 56.4687 161.759 57.5148C161.759 58.5724 161.996 59.3886 162.468 59.9634C162.952 60.5267 163.6 60.8083 164.41 60.8083C164.804 60.8083 165.26 60.7049 165.778 60.4979C166.307 60.2795 166.746 60.0094 167.094 59.6875V53.8937Z" fill="#626568"></path><g clip-path="url(#clip0)"><path d="M54.9251 46.2126C50.8421 46.2126 47.6863 49.544 47.6863 53.4665C47.6863 57.5579 50.8421 60.6734 55.2528 60.6734C58.9518 60.6734 62.0609 57.6142 62.0609 53.5791C62.0609 49.3751 58.9518 46.2126 54.9251 46.2126Z" fill="#626568"></path><path d="M62.3605 65.0369C59.3639 67.5518 57.004 68.4714 53.5204 68.4714C49.9806 68.4714 46.8435 67.3266 44.2776 65.0369C40.897 62.034 39.1084 58.1115 39.1084 53.5228C39.1084 49.3187 40.7191 45.5558 43.7719 42.6092C46.4876 39.9348 49.7465 38.5741 53.4455 38.5741C56.9853 38.5741 60.1037 39.7752 61.602 42.2901V30.2974C57.8656 28.064 54.0261 26.769 49.5686 26.769C37.0856 26.769 27 36.9037 27 49.4126C27 61.9214 37.1324 71.9998 49.6154 71.9998C54.2227 71.9998 58.5117 70.4327 62.089 68.1805H62.3699V65.0369H62.3605Z" fill="#626568"></path><path d="M70.6013 58.4963C71.8187 55.7186 72.2214 52.6501 72.2214 49.422C72.2214 46.1939 71.8187 43.1253 70.6013 40.3477" fill="#626568"></path><path d="M70.6013 40.3384V27.7263L61.6113 29.5093V30.2975C65.3571 32.6998 68.3538 36.1907 70.6013 40.3384Z" fill="#626568"></path><path d="M70.6013 58.4963C68.3538 62.5127 65.9752 65.9378 62.3605 68.19H70.6013V58.4963Z" fill="#626568"></path></g><defs><clipPath id="clip0"><rect width="45.2308" height="45.2308" fill="white" transform="translate(27 26.769)"></rect></clipPath></defs></svg>