<svg xmlns="http://www.w3.org/2000/svg" width="200" height="100" viewBox="0 0 200 100" fill="none"><rect x="1" y="1" width="198" height="98" rx="7" stroke="#3D4044" stroke-width="2"></rect><path d="M88.0576 52.4898L86.572 52.6803C86.5536 53.4422 86.5353 54.2041 86.5169 54.966C86.5169 55.7098 86.5169 56.4717 86.5169 57.2517V58.4218C85.5448 58.9478 84.5819 59.3379 83.6282 59.5918C82.6744 59.8639 81.6473 60 80.5468 60C79.0978 60 77.7864 59.7642 76.6125 59.2925C75.4387 58.8209 74.4299 58.1769 73.5862 57.3605C72.7608 56.5261 72.1188 55.5465 71.6603 54.4218C71.2201 53.2789 71 52.0363 71 50.6939C71 49.3515 71.2293 48.1088 71.6878 46.966C72.1463 45.8231 72.7975 44.8435 73.6412 44.0272C74.5032 43.1927 75.5395 42.5397 76.7501 42.068C77.9606 41.5964 79.3179 41.3605 80.8219 41.3605C81.7023 41.3605 82.5827 41.4603 83.4631 41.6599C84.3435 41.8413 85.2697 42.1678 86.2418 42.6395L86.3519 46.5034H84.1509L83.6557 43.483C82.7936 43.0658 81.9132 42.8571 81.0145 42.8571C79.2354 42.8571 77.8231 43.5374 76.7776 44.898C75.7321 46.2585 75.2094 48.1905 75.2094 50.6939C75.2094 51.9274 75.3561 53.034 75.6496 54.0136C75.9614 54.9751 76.3741 55.7914 76.8876 56.4626C77.4195 57.1338 78.0432 57.6417 78.7585 57.9864C79.4738 58.3311 80.2533 58.5034 81.097 58.5034C81.6289 58.5034 82.115 58.4399 82.5552 58.3129V57.2517C82.5552 56.4898 82.546 55.737 82.5277 54.9932C82.5277 54.2494 82.5185 53.4966 82.5001 52.7347L80.4642 52.4898V51.1293H88.0576V52.4898Z" fill="#626568"></path><path d="M104.374 58.3946V59.5918L99.3119 59.8639L99.1193 57.6054C98.4223 58.3855 97.6978 58.9841 96.9458 59.4014C96.1938 59.8005 95.3776 60 94.4972 60C93.9103 60 93.3784 59.9093 92.9015 59.7279C92.443 59.5646 92.0395 59.2925 91.691 58.9116C91.3608 58.5125 91.104 58.0045 90.9206 57.3878C90.7372 56.771 90.6547 56.0091 90.673 55.102L90.7831 48.1633L89.2699 47.8912V46.8027L94.2221 46.3129L94.5523 46.5306L94.4147 50.3946V54.585C94.4147 55.7823 94.5706 56.6168 94.8824 57.0884C95.1942 57.542 95.5977 57.7687 96.0929 57.7687C96.5698 57.7687 97.0559 57.6145 97.5511 57.3061C98.0647 56.9977 98.5599 56.6168 99.0368 56.1633L99.1468 48.1633L97.6336 47.8912V46.8571L102.531 46.3129L102.861 46.5306L102.778 50.3946V58.068L104.374 58.3946Z" fill="#626568"></path><path d="M113.716 52.5714C113.368 52.6621 113.038 52.7619 112.726 52.8707C112.432 52.9615 112.176 53.0522 111.956 53.1429C111.148 53.4512 110.589 53.8413 110.277 54.3129C109.965 54.7846 109.81 55.3107 109.81 55.8912C109.81 56.254 109.855 56.5442 109.947 56.7619C110.057 56.9796 110.186 57.161 110.332 57.3061C110.717 57.6871 111.231 57.8776 111.873 57.8776C112.166 57.8776 112.451 57.8322 112.726 57.7415C113.001 57.6327 113.331 57.4422 113.716 57.1701V52.5714ZM119.824 57.8776C119.457 58.6213 119.035 59.1383 118.558 59.4286C118.1 59.7188 117.522 59.8639 116.825 59.8639C116.073 59.8639 115.45 59.7188 114.954 59.4286C114.459 59.1383 114.111 58.7574 113.909 58.2857C113.285 58.8481 112.68 59.2744 112.093 59.5646C111.524 59.8549 110.809 60 109.947 60C108.847 60 107.948 59.7279 107.251 59.1837C106.572 58.6213 106.233 57.805 106.233 56.7347C106.233 56.3175 106.297 55.9093 106.426 55.5102C106.572 55.093 106.829 54.6939 107.196 54.3129C107.581 53.9138 108.104 53.5329 108.764 53.1701C109.424 52.8073 110.277 52.4535 111.323 52.1088C111.635 52 112.001 51.8912 112.423 51.7823C112.845 51.6553 113.276 51.5283 113.716 51.4014V50.585C113.716 49.4422 113.542 48.6258 113.194 48.1361C112.845 47.6463 112.231 47.4014 111.35 47.4014C111.204 47.4014 111.057 47.4104 110.91 47.4286C110.782 47.4286 110.644 47.4376 110.497 47.4558L110.277 49.034C110.186 49.7415 109.965 50.2676 109.617 50.6122C109.268 50.9569 108.856 51.1293 108.379 51.1293C107.957 51.1293 107.59 51.0023 107.278 50.7483C106.985 50.4943 106.792 50.1587 106.701 49.7415C106.829 48.6712 107.407 47.7914 108.434 47.102C109.461 46.3946 110.855 46.0408 112.616 46.0408C113.478 46.0408 114.212 46.1406 114.817 46.3401C115.44 46.5215 115.945 46.8299 116.33 47.2653C116.715 47.6825 116.999 48.2449 117.183 48.9524C117.366 49.6417 117.458 50.4943 117.458 51.5102V57.1156C117.458 57.4059 117.513 57.6417 117.623 57.8231C117.733 58.0045 117.907 58.0952 118.146 58.0952C118.329 58.0952 118.476 58.0408 118.586 57.932C118.696 57.8231 118.824 57.6871 118.971 57.5238L119.109 57.3605L119.824 57.8776Z" fill="#626568"></path><path d="M126.184 48.9796C126.698 48.0544 127.285 47.3379 127.945 46.8299C128.605 46.3039 129.257 46.0408 129.898 46.0408C130.284 46.0408 130.678 46.1587 131.082 46.3946C131.503 46.6304 131.788 47.0748 131.934 47.7279C131.934 48.3265 131.76 48.8163 131.412 49.1973C131.063 49.5601 130.595 49.7415 130.009 49.7415C129.293 49.7415 128.587 49.3696 127.89 48.6258L127.835 48.5714C127.505 48.8798 127.193 49.2336 126.9 49.6327C126.625 50.0136 126.386 50.458 126.184 50.966V53.8776C126.184 54.458 126.184 55.1202 126.184 55.8639C126.184 56.6077 126.193 57.3152 126.212 57.9864L128.303 58.3946V59.5918H120.737V58.3946L122.415 58.068C122.433 57.3968 122.443 56.6803 122.443 55.9184C122.443 55.1383 122.443 54.458 122.443 53.8776V52.2993C122.443 51.9184 122.443 51.5918 122.443 51.3197C122.443 51.0476 122.433 50.7937 122.415 50.5578C122.415 50.3039 122.406 50.068 122.388 49.8503C122.388 49.6145 122.378 49.3605 122.36 49.0884L120.517 48.8435V47.8095L125.497 46.0408L125.909 46.3129L126.184 48.9796Z" fill="#626568"></path><path d="M142.045 49.034C141.66 48.7619 141.275 48.5442 140.89 48.381C140.523 48.2177 140.147 48.1361 139.762 48.1361C139.358 48.1361 138.973 48.2358 138.606 48.4354C138.239 48.6349 137.909 48.9342 137.616 49.3333C137.341 49.7324 137.111 50.2404 136.928 50.8571C136.763 51.4558 136.68 52.1723 136.68 53.0068C136.68 54.6576 136.955 55.8821 137.506 56.6803C138.074 57.4785 138.771 57.8776 139.597 57.8776C140 57.8776 140.404 57.7959 140.807 57.6327C141.229 57.4512 141.642 57.2245 142.045 56.9524V49.034ZM147.383 58.3946V59.5918L142.375 59.8639L142.155 58.2585C141.605 58.8209 141.009 59.2562 140.367 59.5646C139.725 59.8549 138.982 60 138.138 60C137.368 60 136.644 59.8549 135.965 59.5646C135.305 59.2744 134.727 58.839 134.232 58.2585C133.755 57.678 133.379 56.9615 133.104 56.1088C132.829 55.2381 132.691 54.2313 132.691 53.0884C132.691 52 132.838 51.0204 133.131 50.1497C133.443 49.2789 133.865 48.5442 134.397 47.9456C134.929 47.3288 135.543 46.8571 136.24 46.5306C136.955 46.2041 137.726 46.0408 138.551 46.0408C139.321 46.0408 140 46.1678 140.587 46.4218C141.174 46.6757 141.706 47.0385 142.183 47.5102V42.585L139.982 42.3129V41.2245L145.512 40L145.897 40.2177L145.787 44.0816V58.068L147.383 58.3946Z" fill="#626568"></path><path d="M156.462 52.5714C156.114 52.6621 155.784 52.7619 155.472 52.8707C155.179 52.9615 154.922 53.0522 154.702 53.1429C153.895 53.4512 153.335 53.8413 153.023 54.3129C152.712 54.7846 152.556 55.3107 152.556 55.8912C152.556 56.254 152.602 56.5442 152.693 56.7619C152.803 56.9796 152.932 57.161 153.078 57.3061C153.464 57.6871 153.977 57.8776 154.619 57.8776C154.913 57.8776 155.197 57.8322 155.472 57.7415C155.747 57.6327 156.077 57.4422 156.462 57.1701V52.5714ZM162.57 57.8776C162.203 58.6213 161.782 59.1383 161.305 59.4286C160.846 59.7188 160.268 59.8639 159.571 59.8639C158.819 59.8639 158.196 59.7188 157.701 59.4286C157.205 59.1383 156.857 58.7574 156.655 58.2857C156.031 58.8481 155.426 59.2744 154.839 59.5646C154.271 59.8549 153.555 60 152.693 60C151.593 60 150.694 59.7279 149.997 59.1837C149.318 58.6213 148.979 57.805 148.979 56.7347C148.979 56.3175 149.043 55.9093 149.172 55.5102C149.318 55.093 149.575 54.6939 149.942 54.3129C150.327 53.9138 150.85 53.5329 151.51 53.1701C152.171 52.8073 153.023 52.4535 154.069 52.1088C154.381 52 154.748 51.8912 155.169 51.7823C155.591 51.6553 156.022 51.5283 156.462 51.4014V50.585C156.462 49.4422 156.288 48.6258 155.94 48.1361C155.591 47.6463 154.977 47.4014 154.096 47.4014C153.95 47.4014 153.803 47.4104 153.656 47.4286C153.528 47.4286 153.39 47.4376 153.244 47.4558L153.023 49.034C152.932 49.7415 152.712 50.2676 152.363 50.6122C152.015 50.9569 151.602 51.1293 151.125 51.1293C150.703 51.1293 150.336 51.0023 150.025 50.7483C149.731 50.4943 149.539 50.1587 149.447 49.7415C149.575 48.6712 150.153 47.7914 151.18 47.102C152.207 46.3946 153.601 46.0408 155.362 46.0408C156.224 46.0408 156.958 46.1406 157.563 46.3401C158.187 46.5215 158.691 46.8299 159.076 47.2653C159.461 47.6825 159.746 48.2449 159.929 48.9524C160.112 49.6417 160.204 50.4943 160.204 51.5102V57.1156C160.204 57.4059 160.259 57.6417 160.369 57.8231C160.479 58.0045 160.654 58.0952 160.892 58.0952C161.075 58.0952 161.222 58.0408 161.332 57.932C161.442 57.8231 161.571 57.6871 161.717 57.5238L161.855 57.3605L162.57 57.8776Z" fill="#626568"></path><path d="M179 58.3946V59.5918H171.957V58.3946L173.635 58.068C173.653 57.3968 173.663 56.6803 173.663 55.9184C173.663 55.1565 173.663 54.4762 173.663 53.8776V51.2653C173.663 50.2313 173.553 49.4785 173.332 49.0068C173.112 48.517 172.681 48.2721 172.039 48.2721C171.507 48.2721 170.985 48.4172 170.471 48.7075C169.976 48.9796 169.462 49.3696 168.93 49.8776V53.8776C168.93 54.458 168.93 55.1383 168.93 55.9184C168.93 56.6803 168.94 57.3968 168.958 58.068L170.526 58.3946V59.5918H163.483V58.3946L165.161 58.068C165.18 57.3787 165.189 56.6531 165.189 55.8912C165.189 55.1293 165.189 54.458 165.189 53.8776V52.3265C165.189 51.9456 165.189 51.619 165.189 51.3469C165.189 51.0567 165.18 50.7937 165.161 50.5578C165.161 50.3039 165.152 50.068 165.134 49.8503C165.134 49.6145 165.125 49.3605 165.106 49.0884L163.263 48.8435V47.8095L168.243 46.0408L168.655 46.3129L168.848 48.4626C169.233 48.0272 169.591 47.6644 169.921 47.3741C170.269 47.0658 170.618 46.8118 170.966 46.6122C171.315 46.4127 171.673 46.2676 172.039 46.1769C172.425 46.0862 172.856 46.0408 173.332 46.0408C174.653 46.0408 175.662 46.4308 176.359 47.2109C177.056 47.9728 177.404 49.1791 177.404 50.8299V53.8776C177.404 54.4762 177.404 55.1655 177.404 55.9456C177.404 56.7075 177.413 57.415 177.432 58.068L179 58.3946Z" fill="#626568"></path><path d="M25 30C22.7909 30 21 31.7909 21 34V66C21 67.8602 22.2699 69.4239 23.99 69.8714C24.6329 68.0769 26.2342 66.5734 28.7941 65.3609C27.5174 64.8212 26.5907 64.1155 26.0142 63.2437C25.4788 62.3719 25.2111 61.4171 25.2111 60.3792C25.2111 58.9262 25.6229 57.5563 26.4466 56.2693C27.2703 54.9409 28.444 53.6124 29.9678 52.284C28.2793 51.4122 27.0232 50.2498 26.1995 48.7968C25.417 47.3438 25.0257 45.7248 25.0257 43.9397C25.0257 42.4867 25.2728 41.1582 25.7671 39.9543C26.3024 38.7089 27.1055 37.6295 28.1763 36.7162C29.2471 35.8029 30.5856 35.0972 32.1918 34.599C33.8391 34.1008 35.7542 33.8518 37.9369 33.8518C40.1609 33.8518 42.0759 34.1008 43.6821 34.599C45.3295 35.0972 46.6885 35.8029 47.7593 36.7162L54.6782 33.7272L55.6667 34.3499V39.1448H49.7979C50.5393 40.5148 50.9099 42.1131 50.9099 43.9397C50.9099 45.3511 50.6422 46.6588 50.1068 47.8627C49.5714 49.0667 48.7683 50.1253 47.6976 51.0386C46.6268 51.9104 45.2677 52.6161 43.6203 53.1558C42.0142 53.654 40.1197 53.903 37.9369 53.903C35.7954 53.903 33.9215 53.654 32.3153 53.1558C31.8211 54.0276 31.574 54.9824 31.574 56.0203C31.574 56.726 31.8417 57.3072 32.3771 57.7638C32.9125 58.179 33.8391 58.3866 35.157 58.3866H42.3848C44.7323 58.3866 46.7091 58.6149 48.3153 59.0715C49.9215 59.4867 51.2188 60.1094 52.2072 60.9397C53.2368 61.7284 53.9575 62.6833 54.3694 63.8041C54.8224 64.8835 55.0489 66.1082 55.0489 67.4781C55.0489 68.3505 54.9293 69.1911 54.69 70H57C59.2091 70 61 68.2091 61 66V34C61 31.7909 59.2091 30 57 30H25Z" fill="#626568"></path><path d="M47.2171 70C47.1039 69.3165 46.7904 68.6834 46.2767 68.1008C45.6178 67.3951 44.444 67.0422 42.7555 67.0422H36.269C34.0039 67.0422 32.13 66.8554 30.6474 66.4818C30.3179 67.063 30.0708 67.6234 29.906 68.1631C29.7482 68.6802 29.666 69.2924 29.6594 70H47.2171Z" fill="#626568"></path><path d="M34.8481 38.7089C35.5483 37.4635 36.5985 36.8408 37.9987 36.8408C39.3578 36.8408 40.3874 37.4635 41.0875 38.7089C41.8288 39.9128 42.1995 41.6149 42.1995 43.8151C42.1995 46.0569 41.8288 47.8212 41.0875 49.1082C40.3874 50.3536 39.3166 50.9763 37.8752 50.9763C36.4337 50.9763 35.3835 50.3536 34.7246 49.1082C34.1068 47.8627 33.7979 46.1192 33.7979 43.8774C33.7979 41.6356 34.148 39.9128 34.8481 38.7089Z" fill="#626568"></path></svg>