<svg xmlns="http://www.w3.org/2000/svg" width="153" height="24" viewBox="0 0 153 24" fill="none"><path d="M21.4602 9.30682H26.25C25.8835 5.80398 22.7045 3.30682 18.5795 3.30682C13.875 3.30682 10.0568 6.54545 10.0568 12.3068C10.0568 17.8295 13.517 21.2386 18.6136 21.2386C23.1818 21.2386 26.4545 18.4432 26.4545 13.6705V11.25H18.7159V14.625H21.8864C21.8438 16.142 20.7699 17.1136 18.6477 17.1136C16.1932 17.1136 14.9318 15.3068 14.9318 12.2386C14.9318 9.21307 16.2955 7.43182 18.6818 7.43182C20.1648 7.43182 21.1705 8.11364 21.4602 9.30682ZM31.18 21.2045C32.8845 21.2045 34.1714 20.625 34.9641 19.1591H35.0663V21H39.4641V12.0341C39.4641 9.61364 37.1714 7.73864 33.43 7.73864C29.518 7.73864 27.5919 9.78409 27.43 12.1705H31.7595C31.8703 11.3608 32.4669 10.9773 33.3618 10.9773C34.18 10.9773 34.7595 11.3523 34.7595 12.0341V12.0682C34.7595 12.8267 33.9243 13.0653 31.7254 13.2273C29.0237 13.4233 26.9186 14.5142 26.9186 17.3864C26.9186 19.9943 28.6743 21.2045 31.18 21.2045ZM32.7141 18.2386C31.9129 18.2386 31.3504 17.8466 31.3504 17.1136C31.3504 16.4403 31.8277 15.9205 32.9186 15.75C33.6686 15.6307 34.2993 15.4773 34.7936 15.2727V16.3636C34.7936 17.5568 33.7794 18.2386 32.7141 18.2386ZM40.5119 21H45.2165V13.3636C45.2165 12.2216 45.8131 11.5227 46.7847 11.5227C47.7563 11.5227 48.3869 12.2216 48.3869 13.3636V21H52.8869V13.3636C52.8869 12.2216 53.4835 11.5227 54.4551 11.5227C55.4267 11.5227 56.0574 12.2216 56.0574 13.3636V21H60.7619V12.1705C60.7619 9.4858 59.0403 7.73864 56.5347 7.73864C54.5915 7.73864 53.0233 8.79545 52.5801 10.3977H52.4438C52.171 8.79545 50.7051 7.73864 48.8642 7.73864C47.0489 7.73864 45.6597 8.76136 45.1142 10.3977H44.9778V7.90909H40.5119V21ZM68.155 21.2386C71.7857 21.2386 74.1209 19.5 74.5641 16.7727H70.2686C69.9959 17.5142 69.2203 17.9318 68.2572 17.9318C66.8595 17.9318 66.0413 17.0114 66.0413 15.75V15.5455H74.5641V14.4545C74.5641 10.2869 72.0072 7.73864 68.0527 7.73864C63.9959 7.73864 61.405 10.4318 61.405 14.4886C61.405 18.7244 63.9618 21.2386 68.155 21.2386ZM66.0413 12.9545C66.0669 11.821 67.0044 11.0455 68.155 11.0455C69.3226 11.0455 70.209 11.8295 70.2345 12.9545H66.0413Z" fill="#181B20"></path><path d="M77.1932 21H76.1932V22H77.1932V21ZM91.4432 21V22H92.4432V21H91.4432ZM91.4432 17.1818H92.4432V16.1818H91.4432V17.1818ZM83.2273 17.1818L82.427 16.5822L81.2285 18.1818H83.2273V17.1818ZM91.4773 6.17045L92.2776 6.77006L92.4773 6.50351V6.17045H91.4773ZM91.4773 3.54545H92.4773V2.54545H91.4773V3.54545ZM77.2273 3.54545V2.54545H76.2273V3.54545H77.2273ZM77.2273 7.36364H76.2273V8.36364H77.2273V7.36364ZM85.4432 7.36364L86.2435 7.96324L87.4419 6.36364H85.4432V7.36364ZM77.1932 18.375L76.3929 17.7754L76.1932 18.0419V18.375H77.1932ZM77.1932 22H91.4432V20H77.1932V22ZM92.4432 21V17.1818H90.4432V21H92.4432ZM91.4432 16.1818H83.2273V18.1818H91.4432V16.1818ZM84.0276 17.7814L92.2776 6.77006L90.677 5.57085L82.427 16.5822L84.0276 17.7814ZM92.4773 6.17045V3.54545H90.4773V6.17045H92.4773ZM91.4773 2.54545H77.2273V4.54545H91.4773V2.54545ZM76.2273 3.54545V7.36364H78.2273V3.54545H76.2273ZM77.2273 8.36364H85.4432V6.36364H77.2273V8.36364ZM84.6429 6.76403L76.3929 17.7754L77.9935 18.9746L86.2435 7.96324L84.6429 6.76403ZM76.1932 18.375V21H78.1932V18.375H76.1932ZM110.878 12.2727C110.878 9.13648 109.864 6.62312 108.114 4.89264C106.369 3.16713 103.98 2.30682 101.389 2.30682V4.30682C103.537 4.30682 105.393 5.01469 106.707 6.31475C108.017 7.60983 108.878 9.57943 108.878 12.2727H110.878ZM101.389 2.30682C98.783 2.30682 96.3929 3.16631 94.651 4.89362C92.9046 6.62537 91.9006 9.13911 91.9006 12.2727H93.9006C93.9006 9.5768 94.7545 7.60758 96.0592 6.31377C97.3685 5.0155 99.2227 4.30682 101.389 4.30682V2.30682ZM91.9006 12.2727C91.9006 15.3907 92.9054 17.9032 94.65 19.6381C96.3904 21.3688 98.7801 22.2386 101.389 22.2386V20.2386C99.2256 20.2386 97.3709 19.5233 96.0602 18.2199C94.7537 16.9207 93.9006 14.9503 93.9006 12.2727H91.9006ZM101.389 22.2386C103.98 22.2386 106.369 21.3783 108.114 19.6528C109.864 17.9223 110.878 15.409 110.878 12.2727H108.878C108.878 14.966 108.017 16.9356 106.707 18.2307C105.393 19.5308 103.537 20.2386 101.389 20.2386V22.2386ZM104.003 12.2727C104.003 13.7303 103.706 14.6948 103.276 15.272C102.881 15.8019 102.296 16.1136 101.389 16.1136V18.1136C102.835 18.1136 104.056 17.5731 104.88 16.4666C105.669 15.4075 106.003 13.9516 106.003 12.2727H104.003ZM101.389 16.1136C100.483 16.1136 99.897 15.8019 99.5023 15.272C99.0724 14.6948 98.7756 13.7303 98.7756 12.2727H96.7756C96.7756 13.9516 97.1094 15.4075 97.8983 16.4666C98.7224 17.5731 99.9433 18.1136 101.389 18.1136V16.1136ZM98.7756 12.2727C98.7756 10.8152 99.0724 9.85069 99.5023 9.27346C99.897 8.74354 100.483 8.43182 101.389 8.43182V6.43182C99.9433 6.43182 98.7224 6.97237 97.8983 8.07881C97.1094 9.13795 96.7756 10.5939 96.7756 12.2727H98.7756ZM101.389 8.43182C102.296 8.43182 102.881 8.74354 103.276 9.27346C103.706 9.85069 104.003 10.8152 104.003 12.2727H106.003C106.003 10.5939 105.669 9.13795 104.88 8.07881C104.056 6.97237 102.835 6.43182 101.389 6.43182V8.43182ZM127.173 3.54545H128.173V2.54545H127.173V3.54545ZM122.434 3.54545V2.54545H121.434V3.54545H122.434ZM122.434 12.6818V13.6818H123.434V12.6818H122.434ZM122.298 12.6818L121.47 13.2436L121.768 13.6818H122.298V12.6818ZM116.093 3.54545L116.92 2.98365L116.623 2.54545H116.093V3.54545ZM112.07 3.54545V2.54545H111.07V3.54545H112.07ZM112.07 21H111.07V22H112.07V21ZM116.809 21V22H117.809V21H116.809ZM116.809 11.8295V10.8295H115.809V11.8295H116.809ZM116.911 11.8295L117.735 11.2629L117.437 10.8295H116.911V11.8295ZM123.218 21L122.394 21.5667L122.692 22H123.218V21ZM127.173 21V22H128.173V21H127.173ZM127.173 2.54545H122.434V4.54545H127.173V2.54545ZM121.434 3.54545V12.6818H123.434V3.54545H121.434ZM122.434 11.6818H122.298V13.6818H122.434V11.6818ZM123.125 12.12L116.92 2.98365L115.266 4.10726L121.47 13.2436L123.125 12.12ZM116.093 2.54545H112.07V4.54545H116.093V2.54545ZM111.07 3.54545V21H113.07V3.54545H111.07ZM112.07 22H116.809V20H112.07V22ZM117.809 21V11.8295H115.809V21H117.809ZM116.809 12.8295H116.911V10.8295H116.809V12.8295ZM116.087 12.3962L122.394 21.5667L124.042 20.4333L117.735 11.2629L116.087 12.3962ZM123.218 22H127.173V20H123.218V22ZM128.173 21V3.54545H126.173V21H128.173ZM129.414 21H128.414V22H129.414V21ZM141.96 21V22H142.96V21H141.96ZM141.96 17.1818H142.96V16.1818H141.96V17.1818ZM134.153 17.1818H133.153V18.1818H134.153V17.1818ZM134.153 14.1818V13.1818H133.153V14.1818H134.153ZM141.346 14.1818V15.1818H142.346V14.1818H141.346ZM141.346 10.3636H142.346V9.36364H141.346V10.3636ZM134.153 10.3636H133.153V11.3636H134.153V10.3636ZM134.153 7.36364V6.36364H133.153V7.36364H134.153ZM141.994 7.36364V8.36364H142.994V7.36364H141.994ZM141.994 3.54545H142.994V2.54545H141.994V3.54545ZM129.414 3.54545V2.54545H128.414V3.54545H129.414ZM129.414 22H141.96V20H129.414V22ZM142.96 21V17.1818H140.96V21H142.96ZM141.96 16.1818H134.153V18.1818H141.96V16.1818ZM135.153 17.1818V14.1818H133.153V17.1818H135.153ZM134.153 15.1818H141.346V13.1818H134.153V15.1818ZM142.346 14.1818V10.3636H140.346V14.1818H142.346ZM141.346 9.36364H134.153V11.3636H141.346V9.36364ZM135.153 10.3636V7.36364H133.153V10.3636H135.153ZM134.153 8.36364H141.994V6.36364H134.153V8.36364ZM142.994 7.36364V3.54545H140.994V7.36364H142.994ZM141.994 2.54545H129.414V4.54545H141.994V2.54545ZM128.414 3.54545V21H130.414V3.54545H128.414Z" fill="#181B20"></path><rect y="1" width="1.79866" height="21.6774" fill="#181B20"></rect><rect x="151" y="1" width="1.79866" height="21.6774" fill="#181B20"></rect></svg>