<svg xmlns="http://www.w3.org/2000/svg" width="200" height="100" viewBox="0 0 200 100" fill="none"><rect x="1" y="1" width="198" height="98" rx="7" stroke="#3D4044" stroke-width="2"></rect><path d="M45.7734 51.7422L50.3789 50.1953C51.0117 51.3438 51.9492 52.293 53.1914 53.043C54.457 53.793 55.793 54.168 57.1992 54.168C58.6289 54.168 59.7773 53.8164 60.6445 53.1133C61.5352 52.4102 61.9805 51.5195 61.9805 50.4414C61.9805 49.2461 61.4883 48.2969 60.5039 47.5938C59.543 46.8906 58.1484 46.2344 56.3203 45.625C53.5781 44.7109 51.7383 43.9961 50.8008 43.4805C48.1523 42.0039 46.8281 39.8359 46.8281 36.9766C46.8281 34.6094 47.7539 32.6992 49.6055 31.2461C51.4805 29.793 53.9062 29.0664 56.8828 29.0664C59.3906 29.0664 61.5234 29.6523 63.2812 30.8242C65.0391 31.9961 66.3281 33.4961 67.1484 35.3242L62.7539 36.8008C61.207 34.6445 59.2383 33.5664 56.8477 33.5664C55.418 33.5664 54.293 33.8828 53.4727 34.5156C52.6523 35.1484 52.2422 35.9688 52.2422 36.9766C52.2422 37.3047 52.2773 37.6094 52.3477 37.8906C52.4414 38.1719 52.582 38.4297 52.7695 38.6641C52.957 38.8984 53.1445 39.1211 53.332 39.332C53.5195 39.5195 53.7891 39.707 54.1406 39.8945C54.4922 40.082 54.7852 40.2461 55.0195 40.3867C55.2773 40.5039 55.6406 40.6562 56.1094 40.8438C56.6016 41.0078 56.9766 41.1367 57.2344 41.2305C57.5156 41.3008 57.9375 41.4297 58.5 41.6172C59.0625 41.7812 59.4727 41.9102 59.7305 42.0039C60.8086 42.3555 61.7578 42.7305 62.5781 43.1289C63.3984 43.5273 64.1953 44.043 64.9688 44.6758C65.7656 45.3086 66.375 46.0938 66.7969 47.0312C67.2188 47.9688 67.4297 49.0234 67.4297 50.1953C67.4297 52.8672 66.4453 54.9414 64.4766 56.418C62.5312 57.8945 60.0586 58.6328 57.0586 58.6328C54.457 58.6328 52.1484 58.0117 50.1328 56.7695C48.1406 55.5273 46.6875 53.8516 45.7734 51.7422ZM74.6367 52.0234C74.6367 52.7031 74.8945 53.2773 75.4102 53.7461C75.9492 54.2148 76.6641 54.4492 77.5547 54.4492C78.8906 54.4492 80.0273 54.0039 80.9648 53.1133C81.9023 52.2227 82.3711 51.0508 82.3711 49.5977V47.9805C81.4336 48.2148 80.2383 48.4375 78.7852 48.6484C76.0195 49.0938 74.6367 50.2188 74.6367 52.0234ZM69.5039 52.4453C69.5039 50.5469 70.2188 48.9883 71.6484 47.7695C73.1016 46.5508 75.2578 45.7305 78.1172 45.3086C80.3672 44.9336 81.7852 44.6641 82.3711 44.5V43.4102C82.3711 42.4961 82.043 41.8047 81.3867 41.3359C80.7305 40.8438 79.8633 40.5977 78.7852 40.5977C76.6289 40.5977 74.7305 41.4883 73.0898 43.2695L70.0664 40.668C72.3164 37.9961 75.2109 36.6602 78.75 36.6602C81.8672 36.6602 84.082 37.4102 85.3945 38.9102C86.7305 40.3867 87.3984 42.4961 87.3984 45.2383V58H82.5117V55.6445C82.0664 56.4648 81.3281 57.168 80.2969 57.7539C79.2891 58.3398 78.1289 58.6328 76.8164 58.6328C74.5664 58.6328 72.7852 58.0586 71.4727 56.9102C70.1602 55.7617 69.5039 54.2734 69.5039 52.4453ZM91.9336 58V28.7852H96.8906V39.1562C98.25 37.4922 99.9258 36.6602 101.918 36.6602C104.449 36.6602 106.547 37.6328 108.211 39.5781C109.898 41.5234 110.742 44.207 110.742 47.6289C110.742 49.5508 110.473 51.25 109.934 52.7266C109.395 54.2031 108.68 55.3633 107.789 56.207C106.922 57.0273 105.996 57.6367 105.012 58.0352C104.027 58.4336 103.02 58.6328 101.988 58.6328C100.84 58.6328 99.7852 58.3398 98.8242 57.7539C97.8867 57.1445 97.207 56.4414 96.7852 55.6445V58H91.9336ZM96.8555 47.6289C96.8555 49.7148 97.2422 51.3555 98.0156 52.5508C98.8125 53.7461 99.8789 54.3438 101.215 54.3438C102.48 54.3438 103.523 53.7812 104.344 52.6562C105.164 51.5078 105.574 49.832 105.574 47.6289C105.574 45.5664 105.188 43.9375 104.414 42.7422C103.641 41.5469 102.574 40.9492 101.215 40.9492C99.832 40.9492 98.7539 41.5703 97.9805 42.8125C97.2305 44.0312 96.8555 45.6367 96.8555 47.6289ZM118.266 47.6641C118.266 50.0078 118.711 51.707 119.602 52.7617C120.516 53.8164 121.559 54.3438 122.73 54.3438C123.879 54.3438 124.91 53.8164 125.824 52.7617C126.762 51.6836 127.23 49.9844 127.23 47.6641C127.23 45.3203 126.773 43.6211 125.859 42.5664C124.945 41.4883 123.902 40.9492 122.73 40.9492C121.559 40.9492 120.516 41.4766 119.602 42.5312C118.711 43.5859 118.266 45.2969 118.266 47.6641ZM113.098 47.6641C113.098 44.5938 113.906 41.9922 115.523 39.8594C117.141 37.7266 119.543 36.6602 122.73 36.6602C124.887 36.6602 126.715 37.1992 128.215 38.2773C129.715 39.3555 130.781 40.7031 131.414 42.3203C132.047 43.9141 132.363 45.6953 132.363 47.6641C132.363 48.6016 132.281 49.5391 132.117 50.4766C131.953 51.3906 131.637 52.3516 131.168 53.3594C130.723 54.3672 130.148 55.2578 129.445 56.0312C128.766 56.7812 127.84 57.4023 126.668 57.8945C125.52 58.3867 124.207 58.6328 122.73 58.6328C121.277 58.6328 119.977 58.3984 118.828 57.9297C117.68 57.4609 116.754 56.8633 116.051 56.1367C115.348 55.3867 114.762 54.5195 114.293 53.5352C113.848 52.5273 113.531 51.5547 113.344 50.6172C113.18 49.6562 113.098 48.6719 113.098 47.6641ZM133.242 58L140.625 47.418L133.594 37.293H139.711L142.102 41.5117C142.242 41.7695 142.465 42.1914 142.77 42.7773C143.098 43.3398 143.332 43.75 143.473 44.0078H143.578C143.648 43.8906 143.848 43.5273 144.176 42.918C144.527 42.2852 144.785 41.8164 144.949 41.5117L147.34 37.293H153.457L146.461 47.418L153.844 58H147.867L145.125 53.3945C144.352 52.0586 143.836 51.1562 143.578 50.6875H143.473C143.051 51.4609 142.535 52.3633 141.926 53.3945L139.184 58H133.242Z" fill="#626568"></path><rect x="45" y="68" width="110" height="2" fill="#626568"></rect></svg>