<svg xmlns="http://www.w3.org/2000/svg" width="200" height="100" viewBox="0 0 200 100" fill="none"><rect x="1" y="1" width="198" height="98" rx="7" stroke="#3D4044" stroke-width="2"></rect><path d="M81.8352 70.7273L82.7685 68.098H86.4332L87.3665 70.7273H88.2017L85.027 62H84.1747L81 70.7273H81.8352ZM83.0241 67.3821L84.571 63.0355H84.6307L86.1776 67.3821H83.0241Z" fill="#626568"></path><path d="M90.1726 70.7273H90.9567L92.5078 65.3622H92.5888L94.1399 70.7273H94.924L96.9013 64.1818H96.1001L94.549 69.5682H94.4893L92.9553 64.1818H92.1499L90.603 69.581H90.5476L88.9964 64.1818H88.1953L90.1726 70.7273Z" fill="#626568"></path><path d="M100.799 70.8636C102.112 70.8636 102.994 70.152 103.292 69.3295L102.572 69.0952C102.321 69.6832 101.728 70.169 100.799 70.169C99.4613 70.169 98.6133 69.1932 98.5792 67.6804H103.454V67.3054C103.454 65.1193 102.103 64.0923 100.684 64.0923C98.9883 64.0923 97.8164 65.5114 97.8164 67.4929C97.8164 69.4787 98.967 70.8636 100.799 70.8636ZM98.5835 67.0114C98.6644 65.7926 99.4869 64.7827 100.684 64.7827C101.856 64.7827 102.679 65.75 102.679 67.0114H98.5835Z" fill="#626568"></path><path d="M109.523 65.6179C109.204 64.6719 108.505 64.0923 107.308 64.0923C105.987 64.0923 105.028 64.8466 105.028 65.9247C105.028 66.8026 105.56 67.3991 106.698 67.6719L107.768 67.9276C108.488 68.098 108.833 68.4688 108.833 68.9929C108.833 69.6747 108.181 70.1818 107.175 70.1818C106.281 70.1818 105.722 69.777 105.539 69.0014L104.81 69.1804C105.04 70.2713 105.906 70.8636 107.188 70.8636C108.629 70.8636 109.617 70.071 109.617 68.9588C109.617 68.0852 109.067 67.5014 107.972 67.233L106.984 66.9901C106.17 66.7855 105.79 66.4574 105.79 65.8906C105.79 65.2259 106.425 64.7614 107.308 64.7614C108.19 64.7614 108.624 65.2259 108.829 65.8139L109.523 65.6179Z" fill="#626568"></path><path d="M113.822 70.8636C115.518 70.8636 116.703 69.4787 116.703 67.4844C116.703 65.4773 115.518 64.0923 113.822 64.0923C112.126 64.0923 110.941 65.4773 110.941 67.4844C110.941 69.4787 112.126 70.8636 113.822 70.8636ZM113.822 70.169C112.463 70.169 111.704 68.9503 111.704 67.4844C111.704 66.0185 112.463 64.7827 113.822 64.7827C115.181 64.7827 115.94 66.0185 115.94 67.4844C115.94 68.9503 115.181 70.169 113.822 70.169Z" fill="#626568"></path><path d="M118.368 70.7273H119.126V66.5341C119.126 65.5156 119.804 64.7912 120.712 64.7912C121.607 64.7912 122.126 65.3878 122.126 66.2741V70.7273H122.902V66.419C122.902 65.4773 123.464 64.7912 124.462 64.7912C125.327 64.7912 125.902 65.3111 125.902 66.3423V70.7273H126.661V66.3423C126.661 64.8764 125.906 64.0966 124.692 64.0966C123.737 64.0966 123.047 64.5611 122.753 65.2855H122.697C122.408 64.544 121.832 64.0966 120.929 64.0966C120.072 64.0966 119.433 64.5099 119.173 65.1875H119.105V64.1818H118.368V70.7273Z" fill="#626568"></path><path d="M131.315 70.8636C132.627 70.8636 133.51 70.152 133.808 69.3295L133.088 69.0952C132.836 69.6832 132.244 70.169 131.315 70.169C129.977 70.169 129.129 69.1932 129.095 67.6804H133.97V67.3054C133.97 65.1193 132.619 64.0923 131.2 64.0923C129.504 64.0923 128.332 65.5114 128.332 67.4929C128.332 69.4787 129.483 70.8636 131.315 70.8636ZM129.099 67.0114C129.18 65.7926 130.002 64.7827 131.2 64.7827C132.372 64.7827 133.194 65.75 133.194 67.0114H129.099Z" fill="#626568"></path><path d="M141.513 73.3182C143.065 73.3182 144.215 72.5597 144.215 70.8977V64.1818H143.474V65.4304H143.397C143.129 64.8423 142.587 64.0923 141.386 64.0923C139.766 64.0923 138.68 65.4474 138.68 67.4375C138.68 69.4446 139.805 70.6591 141.373 70.6591C142.549 70.6591 143.124 69.9773 143.384 69.3764H143.452V70.8509C143.452 72.0696 142.673 72.6364 141.513 72.6364C140.393 72.6364 139.856 72.0952 139.579 71.5966L138.957 72.0057C139.34 72.7557 140.175 73.3182 141.513 73.3182ZM141.462 69.9645C140.163 69.9645 139.442 68.9247 139.442 67.4247C139.442 65.9503 140.15 64.7827 141.462 64.7827C142.745 64.7827 143.465 65.8906 143.465 67.4247C143.465 69.0057 142.724 69.9645 141.462 69.9645Z" fill="#626568"></path><path d="M148.051 70.8764C149.142 70.8764 149.807 70.2713 150.08 69.6918H150.127V70.7273H150.885V66.2827C150.885 64.527 149.564 64.0923 148.563 64.0923C147.561 64.0923 146.53 64.4886 146.087 65.5582L146.807 65.8182C147.046 65.2557 147.638 64.7741 148.584 64.7741C149.577 64.7741 150.127 65.3196 150.127 66.2145V66.3679C150.127 66.8622 149.513 66.8707 148.414 67.0071C146.935 67.1903 145.9 67.6037 145.9 68.8991C145.9 70.1605 146.863 70.8764 148.051 70.8764ZM148.154 70.1818C147.297 70.1818 146.658 69.7259 146.658 68.9332C146.658 68.1406 147.306 67.8082 148.414 67.6719C148.951 67.608 149.905 67.4886 150.127 67.2713V68.2173C150.127 69.2912 149.364 70.1818 148.154 70.1818Z" fill="#626568"></path><path d="M152.903 70.7273H153.662V66.5341C153.662 65.5156 154.339 64.7912 155.247 64.7912C156.142 64.7912 156.662 65.3878 156.662 66.2741V70.7273H157.437V66.419C157.437 65.4773 158 64.7912 158.997 64.7912C159.862 64.7912 160.437 65.3111 160.437 66.3423V70.7273H161.196V66.3423C161.196 64.8764 160.441 64.0966 159.227 64.0966C158.272 64.0966 157.582 64.5611 157.288 65.2855H157.233C156.943 64.544 156.368 64.0966 155.464 64.0966C154.608 64.0966 153.968 64.5099 153.708 65.1875H153.64V64.1818H152.903V70.7273Z" fill="#626568"></path><path d="M165.85 70.8636C167.163 70.8636 168.045 70.152 168.343 69.3295L167.623 69.0952C167.371 69.6832 166.779 70.169 165.85 70.169C164.512 70.169 163.664 69.1932 163.63 67.6804H168.505V67.3054C168.505 65.1193 167.154 64.0923 165.735 64.0923C164.039 64.0923 162.867 65.5114 162.867 67.4929C162.867 69.4787 164.018 70.8636 165.85 70.8636ZM163.634 67.0114C163.715 65.7926 164.538 64.7827 165.735 64.7827C166.907 64.7827 167.729 65.75 167.729 67.0114H163.634Z" fill="#626568"></path><path d="M79.9888 53.0949L83.722 50.8772C85.2004 53.0457 87.1101 54.1299 89.451 54.1299C90.5106 54.1299 91.3361 53.9204 91.9275 53.5015C92.5435 53.058 92.8515 52.4912 92.8515 51.8013C92.8515 51.5795 92.8145 51.3824 92.7406 51.2099C92.6913 51.0128 92.5928 50.828 92.4449 50.6555C92.2971 50.483 92.1615 50.3351 92.0383 50.2119C91.9151 50.0887 91.7057 49.9532 91.41 49.8054C91.1389 49.6575 90.9172 49.5466 90.7447 49.4727C90.5722 49.3741 90.3011 49.2632 89.9315 49.14C89.5619 48.9922 89.2785 48.8936 89.0814 48.8443C88.8843 48.7704 88.5639 48.6719 88.1204 48.5487C87.6769 48.4008 87.3565 48.2899 87.1594 48.216C85.2867 47.6 83.7836 46.8115 82.6501 45.8505C81.5166 44.8895 80.9498 43.4972 80.9498 41.6738C80.9498 39.7271 81.7876 38.1747 83.4632 37.0166C85.1388 35.8585 87.1471 35.2794 89.488 35.2794C91.3114 35.2794 93.024 35.7476 94.6257 36.684C96.2273 37.6203 97.4224 38.8401 98.2109 40.3432L94.7365 42.45C93.2088 40.5033 91.4716 39.53 89.5249 39.53C88.5147 39.53 87.7261 39.7395 87.1594 40.1584C86.6173 40.5526 86.3462 41.0824 86.3462 41.7477C86.3462 41.9695 86.3709 42.1789 86.4202 42.3761C86.4941 42.5732 86.605 42.758 86.7528 42.9305C86.9007 43.103 87.0362 43.2631 87.1594 43.411C87.3072 43.5342 87.5044 43.6697 87.7508 43.8176C88.0218 43.9654 88.2436 44.0886 88.4161 44.1872C88.6132 44.2611 88.8843 44.3597 89.2292 44.4829C89.5742 44.6061 89.8453 44.7046 90.0424 44.7786C90.2395 44.8278 90.5352 44.9264 90.9295 45.0743C91.3237 45.1975 91.6071 45.2837 91.7796 45.333C96.0918 46.7622 98.2479 48.9306 98.2479 51.8382C98.2479 53.6617 97.4963 55.2141 95.9932 56.4954C94.4901 57.7521 92.3587 58.3805 89.5989 58.3805C87.4551 58.3805 85.5331 57.9 83.8328 56.939C82.1572 55.978 80.8759 54.6966 79.9888 53.0949Z" fill="#626568"></path><path d="M101.722 57.7152V35.9447H106.823V38.2363C107.217 37.571 107.883 36.918 108.819 36.2774C109.78 35.6121 110.913 35.2794 112.219 35.2794C114.56 35.2794 116.298 36.4622 117.431 38.8277C117.702 38.3596 118.035 37.9037 118.429 37.4602C118.848 36.992 119.55 36.5115 120.536 36.0186C121.546 35.5258 122.655 35.2794 123.862 35.2794C128.396 35.2794 130.663 38.1008 130.663 43.7436V57.7152H125.341V43.8545C125.341 42.4993 125.144 41.489 124.749 40.8237C124.355 40.1337 123.678 39.7887 122.717 39.7887C121.534 39.7887 120.573 40.2939 119.834 41.3042C119.119 42.2898 118.762 43.4849 118.762 44.8895V57.7152H113.55V43.7067C113.55 41.0947 112.675 39.7887 110.926 39.7887C109.644 39.7887 108.671 40.2569 108.006 41.1933C107.34 42.105 107.008 43.3247 107.008 44.8525V57.7152H101.722Z" fill="#626568"></path><path d="M135.431 33.1726V27.5544H140.902V33.1726H135.431ZM135.579 57.7152V35.9447H140.791V57.7152H135.579Z" fill="#626568"></path><path d="M146.372 57.7152V27H151.658V57.7152H146.372Z" fill="#626568"></path><path d="M155.686 46.7375C155.686 43.2139 156.647 40.4294 158.569 38.3842C160.516 36.3143 162.955 35.2794 165.888 35.2794C168.746 35.2794 171.124 36.3267 173.021 38.4212C174.943 40.5157 175.904 43.2508 175.904 46.6266C175.904 47.5384 175.88 48.216 175.83 48.6595H161.046C161.046 50.1626 161.502 51.4563 162.413 52.5405C163.35 53.6247 164.619 54.1668 166.22 54.1668C167.354 54.1668 168.352 53.8835 169.214 53.3167C170.101 52.7253 170.767 51.9861 171.21 51.099L175.609 52.6514C174.919 54.2777 173.748 55.6453 172.097 56.7541C170.471 57.8384 168.463 58.3805 166.073 58.3805C163.017 58.3805 160.516 57.3332 158.569 55.2387C156.647 53.1196 155.686 50.2859 155.686 46.7375ZM161.083 45.0003H170.545C170.545 43.4726 170.126 42.1666 169.288 41.0824C168.475 39.9982 167.342 39.4561 165.888 39.4561C164.409 39.4561 163.239 40.0105 162.376 41.1194C161.539 42.2036 161.107 43.4972 161.083 45.0003Z" fill="#626568"></path><path d="M20 49.0416C20 62.1061 30.5909 72.697 43.6555 72.697C56.72 72.697 67.3109 62.1061 67.3109 49.0415L61.0028 49.0415C61.0028 58.6222 53.2361 66.3889 43.6555 66.3889C34.0748 66.3889 26.3081 58.6222 26.3081 49.0416L20 49.0416Z" fill="#626568"></path><circle cx="34.9818" cy="38.0023" r="4.73109" fill="#626568"></circle><circle cx="53.9062" cy="38.0023" r="4.73109" fill="#626568"></circle><path d="M20.7885 49.0416C20.7885 62.1061 31.3794 72.697 44.444 72.697C57.5085 72.697 68.0995 62.1061 68.0995 49.0415L61.7913 49.0415C61.7913 58.6222 54.0247 66.3889 44.444 66.3889C34.8633 66.3889 27.0966 58.6222 27.0966 49.0416L20.7885 49.0416Z" fill="#626568"></path><circle cx="35.7703" cy="38.0023" r="4.73109" fill="#626568"></circle><circle cx="54.6947" cy="38.0023" r="4.73109" fill="#626568"></circle></svg>