<svg xmlns="http://www.w3.org/2000/svg" width="200" height="100" viewBox="0 0 200 100" fill="none"><rect x="1" y="1" width="198" height="98" rx="7" stroke="#3D4044" stroke-width="2"></rect><path d="M89.6328 53.737L92.2578 53.7005V54.7031C92.2578 55.566 92.0695 56.3863 91.6927 57.1641C91.316 57.9297 90.7934 58.5312 90.125 58.9688C89.4688 59.4062 88.7396 59.625 87.9375 59.625C87.2205 59.625 86.6432 59.4002 86.2057 58.9505C85.7804 58.4887 85.5677 57.7899 85.5677 56.8542C85.5677 56.125 85.6953 55.5417 85.9505 55.1042C86.2179 54.6667 86.6007 54.3446 87.099 54.138C87.5972 53.9193 88.4418 53.7856 89.6328 53.737Z" fill="#626568"></path><path fill-rule="evenodd" clip-rule="evenodd" d="M49 25C45.134 25 42 28.134 42 32V68C42 71.866 45.134 75 49 75H105C108.866 75 112 71.866 112 68V47.0174C111.894 47.0127 111.791 47.0104 111.69 47.0104C110.414 47.0104 109.418 47.5269 108.701 48.5599C107.996 49.5929 107.643 51.1241 107.643 53.1536V62.8333H102.521V47.7396C102.521 46.658 102.503 45.7587 102.466 45.0417C102.442 44.3125 102.411 43.6684 102.375 43.1094H107.26C107.297 43.3281 107.345 43.9965 107.406 45.1146C107.467 46.2205 107.497 46.9557 107.497 47.3203H107.57C108.069 45.9349 108.512 44.9627 108.901 44.4036C109.29 43.8325 109.752 43.4132 110.286 43.1458C110.755 42.9009 111.326 42.7633 112 42.733V32C112 28.134 108.866 25 105 25H49ZM65.2422 55.4323C65.2422 57.9479 64.3064 59.8741 62.4349 61.2109C60.5755 62.5356 57.8411 63.1979 54.2318 63.1979C50.9384 63.1979 48.3559 62.6146 46.4844 61.4479C44.6128 60.2812 43.4097 58.513 42.875 56.1432L48.0703 55.2865C48.4227 56.6476 49.1094 57.638 50.1302 58.2578C51.151 58.8655 52.5668 59.1693 54.3776 59.1693C58.1328 59.1693 60.0104 58.0269 60.0104 55.7422C60.0104 55.013 59.7917 54.4115 59.3542 53.9375C58.9288 53.4635 58.3212 53.0686 57.5312 52.7526C56.7535 52.4366 55.2526 52.0538 53.0286 51.6042C51.1085 51.1545 49.7717 50.796 49.0182 50.5286C48.2648 50.2491 47.5842 49.9271 46.9766 49.5625C46.3689 49.1858 45.8524 48.7361 45.4271 48.2135C45.0017 47.691 44.6675 47.0773 44.4245 46.3724C44.1936 45.6675 44.0781 44.8594 44.0781 43.9479C44.0781 41.6267 44.947 39.8524 46.6849 38.625C48.4349 37.3854 50.9748 36.7656 54.3047 36.7656C57.4887 36.7656 59.8767 37.2639 61.4688 38.2604C63.0729 39.2569 64.1059 40.9036 64.5677 43.2005L59.3542 43.9115C59.0868 42.8056 58.5399 41.9731 57.7135 41.4141C56.8993 40.855 55.7266 40.5755 54.1953 40.5755C50.9384 40.5755 49.3099 41.5964 49.3099 43.638C49.3099 44.3064 49.48 44.8533 49.8203 45.2786C50.1727 45.704 50.6892 46.0686 51.3698 46.3724C52.0503 46.6641 53.4297 47.0347 55.5078 47.4844C57.9748 48.0069 59.737 48.4931 60.7943 48.9427C61.8637 49.3802 62.7083 49.8967 63.3281 50.4922C63.9479 51.0755 64.4219 51.7804 64.75 52.6068C65.0781 53.421 65.2422 54.3628 65.2422 55.4323ZM74.3568 63.1615C72.8498 63.1615 71.6892 62.7543 70.875 61.9401C70.0608 61.1137 69.6536 59.8681 69.6536 58.2031V46.5729H67.1562V43.1094H69.9089L71.513 38.4792H74.7214V43.1094H78.4583V46.5729H74.7214V56.8177C74.7214 57.7778 74.9036 58.4887 75.2682 58.9505C75.6328 59.4002 76.1979 59.625 76.9635 59.625C77.3646 59.625 77.9358 59.5399 78.6771 59.3698V62.5417C77.4132 62.9549 75.9731 63.1615 74.3568 63.1615ZM81.8307 61.6484C82.9002 62.6814 84.3889 63.1979 86.2969 63.1979C89.1892 63.1979 91.3524 61.9036 92.7865 59.3151H92.8958C93.0174 60.5425 93.382 61.4722 93.9896 62.1042C94.6094 62.7361 95.5634 63.0521 96.8516 63.0521C97.2161 63.0521 97.5321 63.0399 97.7995 63.0156C98.079 62.9913 98.3403 62.9609 98.5833 62.9245C98.8264 62.888 99.0694 62.8394 99.3125 62.7786C99.5556 62.7179 99.829 62.651 100.133 62.5781V59.8073C99.7682 59.8802 99.3915 59.9167 99.0026 59.9167C98.4193 59.9167 98 59.7101 97.7448 59.2969C97.5017 58.8715 97.3802 58.1059 97.3802 57V49.8177C97.3802 47.5573 96.7057 45.8134 95.3568 44.5859C94.0078 43.3585 92.0877 42.7448 89.5964 42.7448C87.1293 42.7448 85.1788 43.2431 83.7448 44.2396C82.3229 45.224 81.4479 46.6762 81.1198 48.5964L86.4609 48.8516C86.5703 47.855 86.8438 47.1441 87.2812 46.7188C87.7309 46.2812 88.4297 46.0625 89.3776 46.0625C90.3984 46.0625 91.1337 46.3785 91.5833 47.0104C92.033 47.6302 92.2578 48.5842 92.2578 49.8724V50.875L88.0104 50.9479C85.4826 50.9722 83.5503 51.5191 82.2135 52.5885C80.8889 53.658 80.2266 55.2135 80.2266 57.2552C80.2266 59.1389 80.7613 60.6033 81.8307 61.6484Z" fill="#626568"></path><path d="M112 47.2653C112.182 47.2412 112.37 47.2292 112.565 47.2292C113.197 47.2292 113.926 47.3203 114.753 47.5026V43.2188C114.352 43.0365 113.823 42.9453 113.167 42.9453C112.74 42.9453 112.351 42.9849 112 43.064V47.2653Z" fill="#626568"></path><path d="M130.375 39.7734V36H135.498V39.7734H130.375Z" fill="#626568"></path><path d="M130.375 63.0521V43.3281H135.498V63.0521H130.375Z" fill="#626568"></path><path d="M119.511 62.1589C120.325 62.9731 121.485 63.3802 122.992 63.3802C124.609 63.3802 126.049 63.1736 127.313 62.7604V59.5885C126.571 59.7587 126 59.8438 125.599 59.8438C124.834 59.8438 124.268 59.6189 123.904 59.1693C123.539 58.7075 123.357 57.9965 123.357 57.0365V46.7917H127.094V43.3281H123.357V38.6979H120.149L118.545 43.3281H115.792V46.7917H118.289V58.4219C118.289 60.0868 118.696 61.3325 119.511 62.1589Z" fill="#626568"></path><path d="M148.495 55.9063L153.089 63.0521H158.649L151.375 52.8073L158.248 43.3281H152.688L148.495 49.7813L144.284 43.3281H138.761L145.633 52.862L138.414 63.0521H143.865L148.495 55.9063Z" fill="#626568"></path></svg>